<?xml version="1.0" encoding="utf-8"?>
<!-- Generator: Adobe Illustrator 21.1.0, SVG Export Plug-In . SVG Version: 6.00 Build 0)  -->
<svg version="1.1" id="Layer_1" xmlns="http://www.w3.org/2000/svg" xmlns:xlink="http://www.w3.org/1999/xlink" x="0px" y="0px"
	 viewBox="0 0 200 200" style="enable-background:new 0 0 200 200;" xml:space="preserve">
<g>
	<path d="M80,19.3l14.8,18.1c-37.4,30.5-56.2,56-56.2,76.4c0,2.4,0.2,5.3,0.5,8.8c3.3-1.5,6.4-2.5,9.3-3.2c2.9-0.6,5.6-1,8.2-1
		c8.5,0,15.5,2.8,20.8,8.5c5.4,5.7,8,12.9,8,21.6c0,8.6-3.2,16.1-9.7,22.5c-6.5,6.4-14.2,9.6-23.1,9.6c-12.2,0-22.8-5-31.7-14.9
		c-8.9-10-13.4-22.8-13.4-38.5c0-10.2,2.1-21,6.3-32.2c4.2-11.2,10.3-21.6,18.4-31.2C40.4,54.2,56.3,39.4,80,19.3z M177.5,19.3
		l14.8,18.1c-37.4,30.5-56.2,56-56.2,76.4c0,2.4,0.2,5.3,0.5,8.8c3.3-1.5,6.4-2.5,9.3-3.2c2.9-0.6,5.7-1,8.2-1
		c8.6,0,15.5,2.8,20.8,8.5c5.3,5.7,7.9,12.9,7.9,21.6c0,8.6-3.2,16.1-9.6,22.5c-6.4,6.4-14.1,9.6-23,9.6c-12.2,0-22.8-5-31.8-14.9
		c-9-10-13.4-22.8-13.4-38.5c0-10.2,2.1-21,6.3-32.2c4.2-11.2,10.3-21.6,18.4-31.2C137.9,54.2,153.8,39.4,177.5,19.3z"/>
</g>
</svg>
